# xmcd CD database file
#
# Track frame offsets:
#	150
#	15759
#	32756
#	49179
#	62928
#	81185
#	103799
#	125405
#	148812
#	164797
#
# Disc length: 2443 seconds
#
# Revision: 0
# Processed by: cddbd v1.5.1PL2 Copyright (c) Steve Scherf et al.
# Submitted via: CDex 1.51
#
DISCID=8909890a
DTITLE=Soul Vaccination - Live
DYEAR=2006
DGENRE=Rhythmic Soul
TTITLE0=Round In Circles - with Andy Stokes 
TTITLE1=It All Comes Back
TTITLE2=Back In Love - with Andy Stokes
TTITLE3=Ain't That Peculiar
TTITLE4=If I Ain't Got You
TTITLE5=You Got The Love
TTITLE6=Once You Get Started
TTITLE7=Pick Up The Pieces
TTITLE8=Signed, Sealed, Delivered
TTITLE9=Souled Out
EXTD=YEAR: 2006
EXTT0=
EXTT1=
EXTT2=
EXTT3=
EXTT4=
EXTT5=
EXTT6=
EXTT7=
EXTT8=
EXTT9=
PLAYORDER=
